solid OpenSCAD_Model
  facet normal -1 0 0
    outer loop
      vertex 0 0 0
      vertex 0 0 2.8
      vertex 0 20 0
    endloop
  endfacet
  facet normal -1 0 0
    outer loop
      vertex 0 20 0
      vertex 0 0 2.8
      vertex 0 20 2.8
    endloop
  endfacet
  facet normal 0 -1 0
    outer loop
      vertex 0 0 2.8
      vertex 0 0 0
      vertex 55 0 0
    endloop
  endfacet
  facet normal 0 -1 0
    outer loop
      vertex 43.4311 0 2.76433
      vertex 0 0 2.8
      vertex 70 0 0
    endloop
  endfacet
  facet normal 0 -1 0
    outer loop
      vertex 70 0 0
      vertex 0 0 2.8
      vertex 55 0 0
    endloop
  endfacet
  facet normal 0 -1 0
    outer loop
      vertex 70 0 14.1847
      vertex 43.4311 0 2.76433
      vertex 70 0 0
    endloop
  endfacet
  facet normal 0 -1 0
    outer loop
      vertex 43.4157 0 2.8
      vertex 0 0 2.8
      vertex 43.4311 0 2.76433
    endloop
  endfacet
  facet normal 0 0 -1
    outer loop
      vertex 0 0 0
      vertex 0 20 0
      vertex 55 0 0
    endloop
  endfacet
  facet normal 0 0 -1
    outer loop
      vertex 55 0 0
      vertex 0 20 0
      vertex 20 20 0
    endloop
  endfacet
  facet normal 0 0 -1
    outer loop
      vertex 55 0 0
      vertex 20 20 0
      vertex 20 27 0
    endloop
  endfacet
  facet normal 0 0 -1
    outer loop
      vertex 55 0 0
      vertex 20 27 0
      vertex 37 27 0
    endloop
  endfacet
  facet normal 0 0 -1
    outer loop
      vertex 55 0 0
      vertex 37 27 0
      vertex 49.6613 27 0
    endloop
  endfacet
  facet normal 0 0 -1
    outer loop
      vertex 55 27 0
      vertex 55 0 0
      vertex 49.6613 27 0
    endloop
  endfacet
  facet normal 0 1 0
    outer loop
      vertex 0 20 0
      vertex 0 20 2.8
      vertex 20 20 0
    endloop
  endfacet
  facet normal 0 1 0
    outer loop
      vertex 20 20 0
      vertex 0 20 2.8
      vertex 20 20 2.8
    endloop
  endfacet
  facet normal 0 0 1
    outer loop
      vertex 0 20 2.8
      vertex 0 0 2.8
      vertex 43.4157 0 2.8
    endloop
  endfacet
  facet normal 0 0 1
    outer loop
      vertex 20 27 2.8
      vertex 20 20 2.8
      vertex 30 27 2.8
    endloop
  endfacet
  facet normal 0 0 1
    outer loop
      vertex 30 17 2.8
      vertex 0 20 2.8
      vertex 43.4157 0 2.8
    endloop
  endfacet
  facet normal 0 0 1
    outer loop
      vertex 43.4157 17 2.8
      vertex 30 17 2.8
      vertex 43.4157 0 2.8
    endloop
  endfacet
  facet normal 0 0 1
    outer loop
      vertex 30 17 2.8
      vertex 20 20 2.8
      vertex 0 20 2.8
    endloop
  endfacet
  facet normal 0 0 1
    outer loop
      vertex 30 17 2.8
      vertex 30 27 2.8
      vertex 20 20 2.8
    endloop
  endfacet
  facet normal 0.918722 0 0.394904
    outer loop
      vertex 43.4311 27 2.76433
      vertex 36.0225 17 20
      vertex 43.4157 17 2.8
    endloop
  endfacet
  facet normal 0.918722 0 0.394904
    outer loop
      vertex 35.533 17 21.1388
      vertex 36.0225 17 20
      vertex 43.4311 27 2.76433
    endloop
  endfacet
  facet normal 0.918722 0 0.394904
    outer loop
      vertex 43.4311 0 2.76433
      vertex 43.4157 17 2.8
      vertex 43.4157 0 2.8
    endloop
  endfacet
  facet normal 0.918722 0 0.394904
    outer loop
      vertex 43.4311 27 2.76433
      vertex 43.4157 17 2.8
      vertex 43.4311 0 2.76433
    endloop
  endfacet
  facet normal 0.918722 0 0.394904
    outer loop
      vertex 35.533 27 21.1388
      vertex 35.533 17 21.1388
      vertex 43.4311 27 2.76433
    endloop
  endfacet
  facet normal -0.394904 -2.22045e-16 0.918722
    outer loop
      vertex 43.4311 0 2.76433
      vertex 70 0 14.1847
      vertex 70 17 14.1847
    endloop
  endfacet
  facet normal -0.394904 -2.22045e-16 0.918722
    outer loop
      vertex 80.1799 27 18.5605
      vertex 43.4311 0 2.76433
      vertex 70 17 14.1847
    endloop
  endfacet
  facet normal -0.394904 -2.22045e-16 0.918722
    outer loop
      vertex 80.1799 17 18.5605
      vertex 80.1799 27 18.5605
      vertex 70 17 14.1847
    endloop
  endfacet
  facet normal -0.394904 -2.22045e-16 0.918722
    outer loop
      vertex 80.1799 27 18.5605
      vertex 43.4311 27 2.76433
      vertex 43.4311 0 2.76433
    endloop
  endfacet
  facet normal 1 0 0
    outer loop
      vertex 70 0 14.1847
      vertex 70 0 0
      vertex 70 27 0
    endloop
  endfacet
  facet normal 1 0 0
    outer loop
      vertex 70 17 8.7424
      vertex 70 0 14.1847
      vertex 70 27 0
    endloop
  endfacet
  facet normal 1 0 0
    outer loop
      vertex 70 27 8.7424
      vertex 70 17 8.7424
      vertex 70 27 0
    endloop
  endfacet
  facet normal 1 0 0
    outer loop
      vertex 70 17 8.7424
      vertex 70 17 14.1847
      vertex 70 0 14.1847
    endloop
  endfacet
  facet normal 0 0 -1
    outer loop
      vertex 55 0 0
      vertex 55 27 0
      vertex 70 0 0
    endloop
  endfacet
  facet normal 0 0 -1
    outer loop
      vertex 70 0 0
      vertex 55 27 0
      vertex 70 27 0
    endloop
  endfacet
  facet normal 0 1 0
    outer loop
      vertex 49.6613 27 0
      vertex 70 27 8.7424
      vertex 55 27 0
    endloop
  endfacet
  facet normal 0 1 0
    outer loop
      vertex 55 27 0
      vertex 70 27 8.7424
      vertex 70 27 0
    endloop
  endfacet
  facet normal 0.394904 2.22045e-16 -0.918722
    outer loop
      vertex 70 27 8.7424
      vertex 88.5855 27 16.7312
      vertex 88.5855 17 16.7312
    endloop
  endfacet
  facet normal 0.394904 2.22045e-16 -0.918722
    outer loop
      vertex 49.6613 27 0
      vertex 88.5855 27 16.7312
      vertex 70 27 8.7424
    endloop
  endfacet
  facet normal 0.394904 2.22045e-16 -0.918722
    outer loop
      vertex 70 27 8.7424
      vertex 88.5855 17 16.7312
      vertex 70 17 8.7424
    endloop
  endfacet
  facet normal -8.76863e-17 1 2.03997e-16
    outer loop
      vertex 30 27 18.7605
      vertex 32.8837 27 20
      vertex 30 27 16.2851
    endloop
  endfacet
  facet normal -8.76863e-17 1 2.03997e-16
    outer loop
      vertex 30 27 16.2851
      vertex 32.8837 27 20
      vertex 35.533 27 21.1388
    endloop
  endfacet
  facet normal -8.76863e-17 1 2.03997e-16
    outer loop
      vertex 30 27 16.2851
      vertex 35.533 27 21.1388
      vertex 43.4311 27 2.76433
    endloop
  endfacet
  facet normal -8.76863e-17 1 2.03997e-16
    outer loop
      vertex 80.1799 27 18.5605
      vertex 72.2819 27 36.9349
      vertex 78.7129 27 39.6993
    endloop
  endfacet
  facet normal -8.76863e-17 1 2.03997e-16
    outer loop
      vertex 80.1799 27 18.5605
      vertex 78.7129 27 39.6993
      vertex 88.5855 27 16.7312
    endloop
  endfacet
  facet normal -8.76863e-17 1 2.03997e-16
    outer loop
      vertex 80.1799 27 18.5605
      vertex 88.5855 27 16.7312
      vertex 43.4311 27 2.76433
    endloop
  endfacet
  facet normal -8.76863e-17 1 2.03997e-16
    outer loop
      vertex 43.4311 27 2.76433
      vertex 88.5855 27 16.7312
      vertex 49.6613 27 0
    endloop
  endfacet
  facet normal -8.76863e-17 1 2.03997e-16
    outer loop
      vertex 43.4311 27 2.76433
      vertex 49.6613 27 0
      vertex 37 27 0
    endloop
  endfacet
  facet normal -8.76863e-17 1 2.03997e-16
    outer loop
      vertex 43.4311 27 2.76433
      vertex 37 27 0
      vertex 30 27 16.2851
    endloop
  endfacet
  facet normal 0 1 0
    outer loop
      vertex 20 27 0
      vertex 20 27 2.8
      vertex 37 27 0
    endloop
  endfacet
  facet normal 0 1 0
    outer loop
      vertex 37 27 0
      vertex 20 27 2.8
      vertex 30 27 2.8
    endloop
  endfacet
  facet normal 0 1 0
    outer loop
      vertex 37 27 0
      vertex 30 27 2.8
      vertex 30 27 16.2851
    endloop
  endfacet
  facet normal -1 0 0
    outer loop
      vertex 20 27 2.8
      vertex 20 27 0
      vertex 20 20 2.8
    endloop
  endfacet
  facet normal -1 0 0
    outer loop
      vertex 20 20 2.8
      vertex 20 27 0
      vertex 20 20 0
    endloop
  endfacet
  facet normal -1 0 0
    outer loop
      vertex 30 17 2.8
      vertex 30 17 20
      vertex 30 27 2.8
    endloop
  endfacet
  facet normal -1 0 0
    outer loop
      vertex 30 27 18.7605
      vertex 30 17 20
      vertex 30 27 20
    endloop
  endfacet
  facet normal -1 0 0
    outer loop
      vertex 30 27 2.8
      vertex 30 17 20
      vertex 30 27 16.2851
    endloop
  endfacet
  facet normal -1 0 0
    outer loop
      vertex 30 27 18.7605
      vertex 30 27 16.2851
      vertex 30 17 20
    endloop
  endfacet
  facet normal 0 -1 0
    outer loop
      vertex 43.4157 17 2.8
      vertex 36.0225 17 20
      vertex 32.8837 17 20
    endloop
  endfacet
  facet normal 0 -1 0
    outer loop
      vertex 30 17 2.8
      vertex 43.4157 17 2.8
      vertex 30 17 20
    endloop
  endfacet
  facet normal 0 -1 0
    outer loop
      vertex 30 17 20
      vertex 43.4157 17 2.8
      vertex 32.8837 17 20
    endloop
  endfacet
  facet normal -0.394904 -2.22045e-16 0.918722
    outer loop
      vertex 35.533 27 21.1388
      vertex 32.8837 27 20
      vertex 32.8837 17 20
    endloop
  endfacet
  facet normal -0.394904 -2.22045e-16 0.918722
    outer loop
      vertex 35.533 17 21.1388
      vertex 35.533 27 21.1388
      vertex 32.8837 17 20
    endloop
  endfacet
  facet normal 8.76863e-17 -1 -2.03997e-16
    outer loop
      vertex 35.533 17 21.1388
      vertex 32.8837 17 20
      vertex 36.0225 17 20
    endloop
  endfacet
  facet normal -0.918722 0 -0.394904
    outer loop
      vertex 80.1799 17 18.5605
      vertex 72.2819 17 36.9349
      vertex 80.1799 27 18.5605
    endloop
  endfacet
  facet normal -0.918722 0 -0.394904
    outer loop
      vertex 80.1799 27 18.5605
      vertex 72.2819 17 36.9349
      vertex 72.2819 27 36.9349
    endloop
  endfacet
  facet normal 8.76863e-17 -1 -2.03997e-16
    outer loop
      vertex 80.1799 17 18.5605
      vertex 70 17 14.1847
      vertex 70 17 8.7424
    endloop
  endfacet
  facet normal 8.76863e-17 -1 -2.03997e-16
    outer loop
      vertex 78.7129 17 39.6993
      vertex 80.1799 17 18.5605
      vertex 88.5855 17 16.7312
    endloop
  endfacet
  facet normal 8.76863e-17 -1 -2.03997e-16
    outer loop
      vertex 88.5855 17 16.7312
      vertex 80.1799 17 18.5605
      vertex 70 17 8.7424
    endloop
  endfacet
  facet normal 8.76863e-17 -1 -2.03997e-16
    outer loop
      vertex 72.2819 17 36.9349
      vertex 80.1799 17 18.5605
      vertex 78.7129 17 39.6993
    endloop
  endfacet
  facet normal 0.918722 0 0.394904
    outer loop
      vertex 88.5855 27 16.7312
      vertex 78.7129 27 39.6993
      vertex 78.7129 17 39.6993
    endloop
  endfacet
  facet normal 0.918722 0 0.394904
    outer loop
      vertex 88.5855 17 16.7312
      vertex 88.5855 27 16.7312
      vertex 78.7129 17 39.6993
    endloop
  endfacet
  facet normal -0.394904 -2.22045e-16 0.918722
    outer loop
      vertex 78.7129 27 39.6993
      vertex 72.2819 27 36.9349
      vertex 72.2819 17 36.9349
    endloop
  endfacet
  facet normal -0.394904 -2.22045e-16 0.918722
    outer loop
      vertex 78.7129 17 39.6993
      vertex 78.7129 27 39.6993
      vertex 72.2819 17 36.9349
    endloop
  endfacet
  facet normal 0 0 1
    outer loop
      vertex 30 27 20
      vertex 30 17 20
      vertex 32.8837 17 20
    endloop
  endfacet
  facet normal 0 0 1
    outer loop
      vertex 32.8837 27 20
      vertex 30 27 20
      vertex 32.8837 17 20
    endloop
  endfacet
  facet normal 0 1 0
    outer loop
      vertex 32.8837 27 20
      vertex 30 27 18.7605
      vertex 30 27 20
    endloop
  endfacet
endsolid OpenSCAD_Model
